<svg width="50" height="50" viewBox="0 0 50 50" fill="none" xmlns="http://www.w3.org/2000/svg">
<path fill-rule="evenodd" clip-rule="evenodd" d="M50 22.3348C49.192 28.4257 46.7262 33.6937 42.8712 37.5816L49.4646 42.8213L45.3298 48L37.3444 41.7106C33.8035 43.5789 29.6214 44.5688 25 44.5688C17.2311 44.5687 10.8892 41.7231 6.49486 36.9248C2.99491 33.1029 0.761144 28.0751 0 22.3348H7.97116C8.57461 26.1587 9.96644 29.4708 12.0888 32.0156C14.9915 35.4961 19.305 37.6084 25 37.6085C27.2236 37.6085 29.2515 37.2933 31.0508 36.7064L26.9974 33.4624L26.4335 33.0099L26.8832 32.4454L30.5682 27.8298L37.0188 32.9702C39.6179 30.3164 41.3342 26.6554 42.0274 22.3348H50ZM26.5491 38.2837L27.0517 38.2454C27.1334 38.238 27.2147 38.2283 27.2958 38.2199C27.0495 38.245 26.8006 38.2669 26.5491 38.2837Z" fill="white"/>
<path d="M15.0585 7.80993C15.0585 11.0187 12.4403 13.6199 9.21045 13.6199C5.98064 13.6199 3.36236 11.0187 3.36236 7.80993C3.36236 4.60119 5.98064 2 9.21045 2C12.4403 2 15.0585 4.60119 15.0585 7.80993Z" fill="white"/>
<path d="M45.761 7.80993C45.761 11.0187 43.1427 13.6199 39.9129 13.6199C36.6831 13.6199 34.0648 11.0187 34.0648 7.80993C34.0648 4.60119 36.6831 2 39.9129 2C43.1427 2 45.761 4.60119 45.761 7.80993Z" fill="white"/>
</svg>
